# xmcd
#
# Track frame offsets:
#	158
#	15388
#	28819
#	42802
#	55684
#	71883
#	84177
#	96811
#	107733
#	120109
#
# Disc length: 1789 seconds
#
# Revision: 1
# Processed by: cddbd v1.5.2PL0 Copyright (c) Steve Scherf et al.
# Submitted via: EasyCDDAExtractor 15.3.0.1
#
DISCID=6f06fb0a
DTITLE=Ednita Nazario - Al Fin... ¡Ednita!
DYEAR=1973
DGENRE=Latin
TTITLE0=Te Quiero Y No Me Importa
TTITLE1=Solamente Amigos
TTITLE2=Tristeza De Dos
TTITLE3=Somos Amigos Nada Mas
TTITLE4=Despertar De Amor
TTITLE5=Mama
TTITLE6=Tengo
TTITLE7=Olas Y Arenas
TTITLE8=Cuando Vuelva A Tu Lado
TTITLE9=Sin Ti, Mi Amor, Sin Ti
EXTD=
EXTT0=
EXTT1=
EXTT2=
EXTT3=
EXTT4=
EXTT5=
EXTT6=
EXTT7=
EXTT8=
EXTT9=
PLAYORDER=
